# xmcd CD database file generated by Grip 2.95
# 
# Track frame offsets:
#       151
#       12716
#       30737
#       49006
#       66549
# 
# Disc length: 1156 seconds
# 
# Revision: 3
# Processed by: cddbd v1.4b41PL3 Copyright (c) Steve Scherf et al.
# Submitted via: Grip 2.95
# 
DISCID=44048205
DTITLE=Jessica Andrews - Jessica Andrews Comp Tape
DYEAR=1900
DGENRE=
TTITLE0=Karma
TTITLE1=Not Enough
TTITLE2=Stay
TTITLE3=I Quit
TTITLE4=Beautiful
EXTD=
EXTT0=
EXTT1=
EXTT2=
EXTT3=
EXTT4=
PLAYORDER=
